<svg width="51" height="33" viewBox="0 0 51 33" fill="none" xmlns="http://www.w3.org/2000/svg">
<g clip-path="url(#clip0_253_629)">
<mask id="mask0_253_629" style="mask-type:luminance" maskUnits="userSpaceOnUse" x="0" y="0" width="51" height="33">
<path d="M0.00927734 0.927734H50.8766V32.0432H0.00927734V0.927734Z" fill="#F2A900"/>
</mask>
<g mask="url(#mask0_253_629)">
<path fill-rule="evenodd" clip-rule="evenodd" d="M23.7054 12.5272C28.6504 12.5272 29.5551 11.8218 29.5551 10.4323C29.5551 9.13877 28.5765 8.33713 23.7054 8.33713H22.9972V12.5272H23.7054ZM24.0673 24.6498C29.4021 24.6498 29.8442 23.378 29.8442 21.9607C29.8442 20.5809 29.4021 19.3428 24.0673 19.3428H22.9972V24.6498H24.0673ZM0.00927734 32.0597V25.6705L0.482716 25.5716C2.35249 25.1806 2.4167 24.5211 2.47182 23.7572V9.23026C2.4167 8.46637 2.35249 7.80747 0.482716 7.41643L0.00927734 7.31722V0.927734H29.4625C33.7948 0.927734 39.1862 0.927735 43.3559 2.17554C48.7935 3.7747 49.9358 6.82615 49.9358 9.1046C49.9358 12.3382 47.7034 14.5216 43.134 15.7283C49.7809 17.0577 50.8766 20.6912 50.8766 22.9393C50.8766 25.2792 49.906 28.4447 45.2833 30.2371C40.6756 32.0597 34.7758 32.0597 29.5705 32.0597H0.00927734Z" fill="#F2A900"/>
</g>
<path fill-rule="evenodd" clip-rule="evenodd" d="M22.4019 18.7476H24.0672C28.7746 18.7476 30.4394 19.6551 30.4394 21.9608C30.4394 24.3376 28.7746 25.2451 24.0672 25.2451H22.4019V18.7476ZM29.5705 31.4646C35.0023 31.4646 40.6508 31.4296 45.068 29.6824C49.1231 28.1103 50.2813 25.3857 50.2813 22.9394C50.2813 19.4456 47.5297 16.3713 39.5639 15.8827V15.8127C46.5159 14.8691 49.3405 12.5284 49.3405 9.10467C49.3405 6.62394 47.8199 4.10876 43.1853 2.74604C38.9844 1.4886 33.5542 1.52304 28.7019 1.52304H0.604492V6.83365C2.77685 7.2878 2.99428 8.19637 3.06703 9.20884V23.7782C2.99428 24.7912 2.77685 25.6998 0.604492 26.154V31.4643L29.5705 31.4646ZM22.4019 7.74195H23.7054C27.7605 7.74195 30.1503 8.23109 30.1503 10.4324C30.1503 12.6681 27.9779 13.1226 23.7054 13.1226H22.4019V7.74195Z" fill="#003865"/>
</g>
<defs>
<clipPath id="clip0_253_629">
<rect width="50.9814" height="31.14" fill="white" transform="translate(0.00927734 0.919922)"/>
</clipPath>
</defs>
</svg>
